<svg xmlns="http://www.w3.org/2000/svg" xmlns:xlink="http://www.w3.org/1999/xlink" width="208" height="240" viewBox="0 0 208 240">
    <defs>
        <path id="a" d="M120 0l103.923 60v120L120 240 16.077 180V60z"/>
    </defs>
    <g fill="none" fill-rule="evenodd">
        <g transform="matrix(-1 0 0 1 224 0)">
            <mask id="b" fill="#fff">
                <use xlink:href="#a"/>
            </mask>
            <use fill="#FBFBFB" xlink:href="#a"/>
            <path fill="#F7F7F7" d="M73.08 29.066h207.612v112.94H73.08z" mask="url(#b)" transform="rotate(90 176.886 85.536)"/>
            <path fill="#F1F1F1" d="M16.609 179.377L120.415 120l103.806 59.377v112.941H16.61z" mask="url(#b)"/>
        </g>
        <path fill="#7D9FFF" d="M63.551 94.36l-11.65 6.16-11.65-6.16v-13.2L51.9 75l11.65 6.16z"/>
        <path fill="#2B4FFD" d="M40.25 94.72l11.651 6.355V87.457l-11.65-6.354z"/>
        <path fill="#5270FF" d="M63.551 94.72l-11.65 6.355V87.457l11.65-6.354z"/>
        <g fill="#E7F0FF">
            <path d="M85.417 109.17L57.01 92.767l1.508-2.613 28.409 16.402zM90.516 112.113l-2.612-1.508 1.508-2.612 2.613 1.508z"/>
        </g>
        <path fill="#7D9FFF" d="M85.307 96.71c5.664-3.42 10.709-2.385 12.556.547.33.53 1.174.077 1.536-.85 1.896-4.883 6.806-12.31 12.386-15.678 3.666-2.214 7-2.54 9.525-1.32l.014-.017.297.171c.128.07 1.313.748 1.435.824l15.614 8.975s-12.287 41.285-12.628 43.105c-.342 1.817-15.117 26.556-15.117 26.556l-16.099-9.26a2.686 2.686 0 0 1-.54-.31l-18.021-13.644c-3.311-2.533-5.14-7.275-5.14-13.329 0-9.505 6.35-21.043 14.182-25.77"/>
        <path fill="#2B4FFD" d="M125.007 132.253c-.418 1.478-8.865 15.935-14.448 25.3l-15.224-8.756a2.256 2.256 0 0 1-.429-.235l-18.023-13.646c-3.03-2.318-4.703-6.735-4.703-12.436 0-9.14 6.126-20.271 13.655-24.816 5.185-3.129 9.616-2.233 11.145.2.128.2.299.35.487.47l-6.357 9.294 10.676 11.516 18.278 3.778s7.027-12.952 7.027-15.569c0-2.618-2.934-13.627-2.934-13.627l-15.28-9.362c1.11-1.044 2.263-1.974 3.434-2.681 3.208-1.936 6.248-2.388 8.557-1.272l.246.12c.138.075 1.246.708 1.396.802l14.897 8.561c-2.068 6.957-12.075 40.625-12.4 42.36zm-1.442-52.83c-.089-.058-1.323-.763-1.454-.836l-1.082-.621c-2.813-.989-6.29-.292-9.772 1.807-5.601 3.381-10.698 10.719-12.836 16.218-.02.048-.04.09-.057.128-2.31-2.886-7.627-3.962-13.584-.364-8.109 4.894-14.707 16.882-14.707 26.725 0 6.421 1.98 11.472 5.57 14.218l18.026 13.647c.215.166.46.308.748.434l16.875 9.712.527-.885c3.49-5.844 14.907-25.055 15.257-26.93.24-1.288 7.669-26.414 12.601-42.987l.256-.858-16.368-9.408z"/>
        <path fill="#7D9FFF" d="M85.39 96.952c3.795-2.292 7.289-2.553 9.752-1.613l.027-.026.229.133a5.95 5.95 0 0 1 1.318.767l14.657 8.52 7.592 24.861-7.586 28.282c-.19.71-.963 1.048-1.58.693l-14.89-8.563a2.77 2.77 0 0 1-.542-.31l-18.02-13.645c-3.311-2.533-5.138-7.274-5.138-13.33 0-9.505 6.35-21.043 14.18-25.77"/>
        <path fill="#2B4FFD" d="M85.917 97.906c3.168-1.912 6.397-2.468 8.865-1.531l.179.068c.483.219.828.424 1.126.654l14.41 8.387 7.367 24.13-5.7 21.255-8.27-7.14-11.449-26.456-15.823-9.288c2.44-4.235 5.704-7.91 9.295-10.079zm26.334 6.076l-15.022-8.734c-.338-.273-.858-.576-1.43-.822l-.783-.463-.137.13c-2.951-.865-6.557-.186-10.017 1.903-8.109 4.895-14.707 16.884-14.707 26.727 0 6.42 1.98 11.471 5.57 14.217l18.026 13.648c.215.165.46.307.747.433l14.792 8.515c.257.147.534.219.815.25l.202.13.034-.105c.276-.003.551-.058.814-.17a2.208 2.208 0 0 0 1.24-1.465l7.67-28.602-7.814-25.592z"/>
        <path fill="#5270FF" d="M92.903 145.377c-3.31-2.531-5.138-7.274-5.138-13.328 0-9.506 6.35-21.043 14.182-25.771 5.663-3.417 10.708-2.385 12.553.548.333.529 1.176.076 1.536-.85 1.898-4.882 6.809-12.311 12.387-15.679h.001c7.874-4.753 14.257-.9 14.257 8.606 0 6.054-1.838 13.009-5.166 19.548l-18.012 35.392c-2.28 4.482-6.296 6.907-8.578 5.18l-18.022-13.646"/>
        <path fill="#FFF" d="M110.171 130.98c-.71-.537-1.101-1.544-1.101-2.829 0-2.018 1.361-4.467 3.04-5.47 1.215-.726 2.297-.507 2.692.116.072.112.253.016.33-.18.407-1.037 1.46-2.614 2.656-3.33 1.689-1.008 3.057-.19 3.057 1.828 0 1.285-.394 2.761-1.107 4.15l-3.862 7.513c-.49.951-1.35 1.466-1.84 1.1l-3.865-2.898"/>
        <path fill="#2B4FFD" d="M134.786 89.358c1.176 0 2.25.282 3.193.85 2.352 1.419 3.646 4.508 3.646 8.695 0 5.883-1.79 12.642-5.04 19.03l-18.01 35.39c-1.34 2.633-3.402 4.623-5.25 5.07-.717.172-1.318.087-1.783-.265l-18.018-13.642c-3.033-2.323-4.702-6.738-4.702-12.437 0-9.14 6.124-20.272 13.652-24.815 5.186-3.13 9.615-2.236 11.146.198.32.506.87.762 1.438.713.806-.084 1.574-.771 1.955-1.755 1.954-5.024 6.801-12.04 11.937-15.139 2.082-1.256 4.072-1.893 5.836-1.893zm-22.143 71.325c.372 0 .76-.046 1.158-.143 2.454-.594 4.997-2.963 6.634-6.18l18.012-35.392c3.41-6.701 5.287-13.827 5.287-20.065 0-5.008-1.67-8.773-4.702-10.605-3.033-1.83-6.984-1.459-11.137 1.045-5.6 3.381-10.698 10.717-12.835 16.218-.019.046-.04.089-.058.126-2.31-2.884-7.628-3.96-13.583-.363-8.108 4.895-14.707 16.883-14.707 26.725 0 6.422 1.978 11.47 5.571 14.219l.003.002 18.02 13.645c.675.51 1.47.768 2.337.768z"/>
        <g fill="#FFF">
            <path d="M147.66 147.02l-32.779-18.925 1.508-2.613 32.78 18.926zM152.76 149.964l-2.613-1.508 1.508-2.613 2.613 1.509z"/>
        </g>
        <g>
            <path fill="#7D9FFF" d="M167.85 158.285l-11.65 6.16-11.65-6.16v-13.2l11.65-6.16 11.65 6.16z"/>
            <path fill="#2B4FFD" d="M144.55 158.645L156.2 165v-13.617l-11.65-6.355z"/>
            <path fill="#5270FF" d="M167.85 158.645L156.2 165v-13.617l11.65-6.355z"/>
        </g>
    </g>
</svg>
