<svg xmlns="http://www.w3.org/2000/svg" xmlns:xlink="http://www.w3.org/1999/xlink" width="208" height="240" viewBox="0 0 208 240">
    <defs>
        <path id="a" d="M120 0l103.923 60v120L120 240 16.077 180V60z"/>
        <path id="c" d="M23.45 4.055C21.271 2.777 18.98 1.84 16.993.413V.278a1.137 1.137 0 0 0-.222-.029c-.072-.053-.144-.106-.216-.161l.001.157c-.184 0-.37-.01-.554-.12v4.94c0 7.17-4.36 15.519-9.718 18.612l-1.486.859c-1.67.963-3.285 1.31-4.682 1.03v1.007c.315.052.638.081.967.081.407 0 .824-.04 1.249-.12l.237.7s2.336 2.38 2.524 2.288c.189-.092 2.43.637 2.548.59.118-.047 2.477-.354 2.784-.425.307-.07 2.052-1.108 2.052-1.108l2.58-1.793 2.469-1.84 2.996-4.341 2.312-5.827.684-3.098-.07-7.625"/>
        <path id="e" d="M10.06 11.305l-.001-6.928L.064.145v6.903c.003.15.095.292.28.399l7.704 4.448c.414.239 1.138.21 1.616-.067.26-.15.393-.341.395-.523"/>
        <path id="g" d="M18.868.83l-.03-.017-.021-.011-.064-.038h-.007c-1.954-1.079-4.408-.878-6.924.574l-1.487.859C4.703 5.448.122 14.182.122 21.667v6.511c0 4.04 1.346 7.133 3.692 8.488.123.071.248.136.375.196h-.003l6.457 3.747-1.84-2.262-.744-3.291-.141-3.787-.036-2.335v-5.202l.46-2.619.496-2.123 1.026-2.712.973-2.065.902-1.291 1.221-2.053.832-1.008 1.256-.973.92-.814 2.335-1.752 2.118-1.014 1.84-.496 1.675.047 1.709-.109L18.868.83"/>
        <path id="i" d="M8.351 10.017l-.08-.14.024.001-.21-1.533-.038-1.156S7.27 3.46 7.221 3.39c-.047-.07-1.108-1.887-1.108-1.887L2.62.088S.427.229.427.3c0 .005.005.026.013.059C.305.388.171.42.039.459c.429 1.212.658 2.66.658 4.283v1.494c-.022.098.03.2.16.275L7.7 10.477c.222.128.423-.025.645-.154.222-.128.228-.178.006-.306"/>
        <path id="k" d="M13.75 25.886L1.27 18.68C.568 18.276 0 17.19 0 16.255V1.223C0 .288.568-.142 1.27.263l12.48 7.205c.7.405 1.27 1.49 1.27 2.426v15.032c0 .935-.57 1.365-1.27.96"/>
        <path id="m" d="M.297.034h22.554v56.8H.297z"/>
        <path id="o" d="M.031.327h21.144V45.52H.03z"/>
        <path id="q" d="M0 .007h21.143v55.722H0z"/>
        <path id="s" d="M.06.18h39.898v81.792H.06z"/>
        <path id="u" d="M.06.18h40.103v81.792H.06z"/>
        <path id="w" d="M.35 49.612v1.063l33.077 18.797V19.124L.349.172z"/>
    </defs>
    <g fill="none" fill-rule="evenodd">
        <g transform="matrix(-1 0 0 1 224 0)">
            <mask id="b" fill="#fff">
                <use xlink:href="#a"/>
            </mask>
            <use fill="#FBFBFB" xlink:href="#a"/>
            <path fill="#F7F7F7" d="M73.08 29.066h207.612v112.94H73.08z" mask="url(#b)" transform="rotate(90 176.886 85.536)"/>
            <path fill="#F1F1F1" d="M16.609 179.377L120.415 120l103.806 59.377v112.941H16.61z" mask="url(#b)"/>
        </g>
        <g transform="matrix(-1 0 0 1 64.423 84.657)">
            <mask id="d" fill="#fff">
                <use xlink:href="#c"/>
            </mask>
            <path fill="#2B4FFD" d="M23.45 4.055C21.271 2.777 18.98 1.84 16.993.413V.278a1.137 1.137 0 0 0-.222-.029c-.072-.053-.144-.106-.216-.161l.001.157c-.184 0-.37-.01-.554-.12v4.94c0 7.17-4.36 15.519-9.718 18.612l-1.486.859c-1.67.963-3.285 1.31-4.682 1.03v1.007c.315.052.638.081.967.081.407 0 .824-.04 1.249-.12l.237.7s2.336 2.38 2.524 2.288c.189-.092 2.43.637 2.548.59.118-.047 2.477-.354 2.784-.425.307-.07 2.052-1.108 2.052-1.108l2.58-1.793 2.469-1.84 2.996-4.341 2.312-5.827.684-3.098-.07-7.625" mask="url(#d)"/>
        </g>
        <path fill="#FFFFFE" d="M64.048 110.52c-1.398.282-3.013-.066-4.682-1.03l-1.487-.858c-5.358-3.094-9.718-11.443-9.718-18.612V85.08c-.184.11-.37.12-.554.121l.001-.157c-.071.055-.144.108-.216.161a1.22 1.22 0 0 0-.196.024c.077-.053.157-.103.233-.158v-.135c.074-.018.148-.025.222-.029.072-.053.145-.106.216-.161l-.001.157c.185 0 .37-.01.554-.12v4.94c0 7.17 4.36 15.519 9.718 18.612l1.487.859c1.669.963 3.284 1.31 4.682 1.03v1.007c-.086.014-.173.022-.26.033v-.742"/>
        <path fill="#7D9FFF" d="M41.84 96.224l.069-.04c.87 6.485 4.813 13.291 9.535 16.017l1.487.858c2.196 1.268 4.297 1.468 5.933.574-.063.04-.126.08-.191.117-1.65.952-3.79.766-6.026-.525l-1.486-.859c-4.722-2.726-8.664-9.532-9.536-16.016l-.067.039c-.162.093-.37.143-.594.155l-.026-.172c.333.034.668-.012.903-.148"/>
        <g transform="matrix(-1 0 0 1 49.606 84.494)">
            <mask id="f" fill="#fff">
                <use xlink:href="#e"/>
            </mask>
            <path fill="#5270FF" d="M10.06 11.305l-.001-6.928L.064.145v6.903c.003.15.095.292.28.399l7.704 4.448c.414.239 1.138.21 1.616-.067.26-.15.393-.341.395-.523" mask="url(#f)"/>
        </g>
        <path fill="#24224A" d="M39.688 88.73l2.289-.91 7.706-3.322-9.995 4.231"/>
        <path fill="#7D9FFF" d="M40.938 88.282v8.264a1.893 1.893 0 0 1-.997-.224c-.259-.15-.392-.34-.394-.523h-.001v-6.928l1.392-.59"/>
        <path fill="#2B4FFD" d="M41.558 89.489l7.704-4.448c.414-.24.362-.657-.116-.933-.478-.277-1.202-.306-1.616-.067l-7.705 4.448c-.414.239-.362.657.117.933.478.276 1.201.306 1.616.067"/>
        <g transform="matrix(-1 0 0 1 69.96 73.91)">
            <mask id="h" fill="#fff">
                <use xlink:href="#g"/>
            </mask>
            <path fill="#2B4FFD" d="M18.868.83l-.03-.017-.021-.011-.064-.038h-.007c-1.954-1.079-4.408-.878-6.924.574l-1.487.859C4.703 5.448.122 14.182.122 21.667v6.511c0 4.04 1.346 7.133 3.692 8.488.123.071.248.136.375.196h-.003l6.457 3.747-1.84-2.262-.744-3.291-.141-3.787-.036-2.335v-5.202l.46-2.619.496-2.123 1.026-2.712.973-2.065.902-1.291 1.221-2.053.832-1.008 1.256-.973.92-.814 2.335-1.752 2.118-1.014 1.84-.496 1.675.047 1.709-.109L18.868.83" mask="url(#h)"/>
        </g>
        <g transform="matrix(-1 0 0 1 49.117 78.47)">
            <mask id="j" fill="#fff">
                <use xlink:href="#i"/>
            </mask>
            <path fill="#2B4FFD" d="M8.351 10.017l-.08-.14.024.001-.21-1.533-.038-1.156S7.27 3.46 7.221 3.39c-.047-.07-1.108-1.887-1.108-1.887L2.62.088S.427.229.427.3c0 .005.005.026.013.059C.305.388.171.42.039.459c.429 1.212.658 2.66.658 4.283v1.494c-.022.098.03.2.16.275L7.7 10.477c.222.128.423-.025.645-.154.222-.128.228-.178.006-.306" mask="url(#j)"/>
        </g>
        <path fill="#24224A" d="M61.832 111.49l.15.024-.129.377-.24.243.219-.644"/>
        <path fill="#2B4FFD" d="M48.161 85.003V83.51c0-1.624.229-3.07.658-4.284a6.354 6.354 0 0 0-.401-.1.525.525 0 0 0 .013-.058c0-.07-2.194-.212-2.194-.212l-3.38 1.37.147-.253 3.492-1.415s2.194.142 2.194.212a.547.547 0 0 1-.013.059c.135.03.27.062.401.1-.429 1.212-.658 2.66-.658 4.283v1.494c.022.098-.03.2-.16.275l-.097.057-.002-.034"/>
        <path fill="#7D9FFF" d="M62.371 95.17c.086-.059.18-.11.285-.15-1.32-6.227-5.18-12.422-9.725-15.047l-1.487-.858c-2.556-1.475-5.048-1.662-7.016-.525-.053.03-.104.061-.156.093a5.487 5.487 0 0 0-.127.072c-2.347 1.354-3.693 4.448-3.693 8.488l-.002 1.454c-.008.09.043.18.162.25a.89.89 0 0 0 .805 0l.026-.016.25-.145.007-.005.026-.015v-1.688c0-3.563 1.095-6.285 3.012-7.518-.032.018-.066.034-.098.053-2.032 1.173-3.197 3.954-3.197 7.63v1.688-1.688c0-3.676 1.165-6.457 3.197-7.63.694-.4 1.475-.6 2.313-.6 1.154 0 2.417.377 3.713 1.125l1.486.859C57.51 84.09 61.87 92.44 61.87 99.608v6.512c0 3.676-1.166 6.457-3.197 7.63-1.65.952-3.79.766-6.026-.525l-1.486-.859c-4.722-2.726-8.664-9.532-9.536-16.016l-.067.039c-.236.136-.57.182-.903.149.935 6.75 5.066 13.832 10.01 16.686l1.487.859c1.452.838 2.883 1.26 4.21 1.26a5.544 5.544 0 0 0 2.806-.735c2.347-1.355 3.693-4.448 3.693-8.488v-6.512c0-1.449-.172-2.945-.49-4.439z"/>
        <path fill="#65C3D0" d="M62.087 110.89c.064.028.128.052.191.073-.63 1.566-1.589 2.765-2.827 3.48-.031.018-.063.034-.095.05 1.208-.762 2.135-2.003 2.731-3.603"/>
        <path fill="#2B4FFD" d="M59.069 95.374l12.48-7.205c.312-.18.598-.195.82-.072v-.002l1.715.994-1.266.488v14.584c0 .935-.568 2.02-1.27 2.426l-11.934 6.89.297 1.35-1.664-.963h.002c-.275-.153-.45-.514-.45-1.032V97.8c0-.935.569-2.021 1.27-2.426"/>
        <path fill="#5270FF" d="M58.247 113.864h.002c-.275-.153-.45-.514-.45-1.032V97.8c0-.41.114-.849.297-1.247l14.59 8.424c-.206.681-.636 1.32-1.137 1.61l-11.935 6.89.297 1.35-1.664-.963"/>
        <g transform="matrix(-1 0 0 1 74.519 88.89)">
            <mask id="l" fill="#fff">
                <use xlink:href="#k"/>
            </mask>
            <path fill="#7D9FFF" d="M13.75 25.886L1.27 18.68C.568 18.276 0 17.19 0 16.255V1.223C0 .288.568-.142 1.27.263l12.48 7.205c.7.405 1.27 1.49 1.27 2.426v15.032c0 .935-.57 1.365-1.27.96" mask="url(#l)"/>
        </g>
        <path fill="#7D9FFF" d="M60.419 96.19l12.48-7.206c.38-.22.717-.187.95.033a.924.924 0 0 0-.6.136L60.77 96.36c-.7.404-1.27 1.49-1.27 2.425v15.033c0 .427.124.742.32.927-.397-.057-.67-.452-.67-1.096V98.615c0-.935.569-2.02 1.27-2.426"/>
        <path fill="#5270FF" d="M61.101 114.096l11.817-6.822c.664-.384 1.202-1.412 1.202-2.297V90.743c0-.886-.538-1.292-1.202-.91L61.1 96.657c-.664.384-1.202 1.412-1.202 2.297v14.234c0 .885.538 1.292 1.202.909"/>
        <g fill="#E7F0FF">
            <path d="M94.57 118.234L66.522 102.04l1.489-2.579 28.048 16.194zM99.604 121.14l-2.579-1.488 1.49-2.58 2.578 1.49z"/>
        </g>
        <g>
            <g transform="matrix(-1 0 0 1 112.3 88.413)">
                <mask id="n" fill="#fff">
                    <use xlink:href="#m"/>
                </mask>
                <path fill="#2B4FFD" d="M20.707 10.023L3.851.289C3.297-.03 2.794-.039 2.413.202V.197L.297 1.423l1.42.264a3.476 3.476 0 0 0-.01.223v39.757c0 1.579.96 3.413 2.144 4.096l16.62 9.597-.474 1.473 2.068-1.2c.48-.246.786-.865.786-1.757V14.118c0-1.578-.96-3.412-2.144-4.095" mask="url(#n)"/>
            </g>
            <g transform="matrix(-1 0 0 1 110.625 99.726)">
                <mask id="p" fill="#fff">
                    <use xlink:href="#o"/>
                </mask>
                <path fill="#2B4FFD" d="M.031 30.354c0 1.578.96 3.412 2.144 4.095l16.62 9.598-.474 1.473 2.068-1.2c.48-.247.786-.866.786-1.757V2.805c0-.823-.263-1.715-.681-2.478L.031 12.141v18.213z" mask="url(#p)"/>
            </g>
            <g transform="matrix(-1 0 0 1 112.72 89.67)">
                <mask id="r" fill="#fff">
                    <use xlink:href="#q"/>
                </mask>
                <path fill="#7D9FFF" d="M19 55.472L2.144 45.738C.959 45.054 0 43.22 0 41.642V1.884C0 .306.96-.42 2.144.264L19 9.998c1.184.683 2.143 2.517 2.143 4.095v39.758c0 1.578-.96 2.304-2.143 1.62" mask="url(#r)"/>
            </g>
            <path fill="#5270FF" d="M93.5 99.526l16.856-9.733c.611-.353 1.16-.328 1.551-.008-.366-.175-.828-.142-1.33.148L93.72 99.668c-1.184.683-2.144 2.517-2.144 4.095v39.758c0 .764.227 1.326.593 1.628-.494-.238-.812-.862-.812-1.77v-39.757c0-1.579.96-3.412 2.143-4.096"/>
            <path fill="#2B4FFD" d="M93.962 143.803l16.197-9.353c.88-.508 1.593-1.87 1.593-3.044V92.213c0-1.173-.713-1.712-1.593-1.204l-16.197 9.353c-.88.508-1.593 1.871-1.593 3.044v39.193c0 1.173.713 1.713 1.593 1.204"/>
            <path fill="#7D9FFF" d="M99.428 99.13l4.68-2.731c.459-.288.471-.58.483-1.037.007-.284.034-1.136.034-1.136-.181-.313-.882.134-1.196.315l-3.723 2.249c-.314.18-1.225.515-1.043.828l.005 1.066c-.03.313.304.757.76.446"/>
        </g>
        <g fill="#FFF">
            <path d="M135.635 140.434l-28.048-16.194 1.49-2.58 28.048 16.195z"/>
        </g>
        <g>
            <g transform="matrix(-1 0 0 1 168.36 95.725)">
                <mask id="t" fill="#fff">
                    <use xlink:href="#s"/>
                </mask>
                <path fill="#B69AF0" d="M4.876.695l33.341 18.957a3.461 3.461 0 0 1 1.74 3.003l-.906 57.162c0 1.812-2.251 2.155-2.251 2.155l-.008-.803c-.012-.007-.025-.01-.037-.018L3.309 62.081a4.084 4.084 0 0 1-2.06-3.547V2.154l-1.188.46S1.006.244 2.949.182c.575-.018 1.428.227 1.927.513" mask="url(#t)"/>
            </g>
            <g transform="matrix(-1 0 0 1 168.36 95.725)">
                <mask id="v" fill="#fff">
                    <use xlink:href="#u"/>
                </mask>
                <path fill="#2B4FFD" d="M4.876.695l33.341 18.957a3.461 3.461 0 0 1 1.74 3.003l.206 56.655c0 1.811-3.363 2.662-3.363 2.662l-.008-.803c-.012-.007-.025-.01-.037-.018L3.309 62.081a4.084 4.084 0 0 1-2.06-3.547V2.154l-1.188.46S1.006.244 2.949.182c.575-.018 1.428.227 1.927.513" mask="url(#v)"/>
            </g>
            <path fill="#7D9FFF" d="M131.977 116.86a3.461 3.461 0 0 0-1.741 3.003v56.255c0 1.812 2.251 1.75 2.251 1.58l.008-.228c.012-.006.025-.01.037-.018l33.446-19.07a4.083 4.083 0 0 0 2.061-3.547v-56.38l.18 1.7s.746-2.967-1.199-3.029c-.575-.018-1.368.44-1.868.726l-33.175 19.007z"/>
            <path fill="#7D9FFF" d="M166.289 158.52a4.083 4.083 0 0 0 2.061-3.547V98.717c0-.861-.596-1.38-1.443-1.328-.325.02-.636.14-.918.3l-33.701 19.309a3.46 3.46 0 0 0-1.74 3.003v56.255a1.536 1.536 0 0 0 2.296 1.335l33.445-19.07z"/>
            <path fill="#FE93A6" d="M129.922 176.77"/>
            <g transform="matrix(-1 0 0 1 166.337 102.604)">
                <mask id="x" fill="#fff">
                    <use xlink:href="#w"/>
                </mask>
                <path fill="#2B4FFD" d="M.35 49.612v1.063l16.538 9.398 16.539 9.399V19.124L.349.172z" mask="url(#x)"/>
            </g>
            <g fill="#2B4FFD">
                <path d="M149.683 109.921c.167.082.389-.03.495-.247.106-.218.057-.461-.11-.543-.168-.08-.39.03-.495.248-.107.218-.057.46.11.542z"/>
            </g>
        </g>
    </g>
</svg>
