<svg xmlns="http://www.w3.org/2000/svg" xmlns:xlink="http://www.w3.org/1999/xlink" width="208" height="240" viewBox="0 0 208 240">
    <defs>
        <path id="a" d="M120 0l103.923 60v120L120 240 16.077 180V60z"/>
    </defs>
    <g fill="none" fill-rule="evenodd">
        <g transform="translate(-16)">
            <mask id="b" fill="#fff">
                <use xlink:href="#a"/>
            </mask>
            <use fill="#FBFBFB" xlink:href="#a"/>
            <path fill="#F7F7F7" d="M73.08 29.066h207.612v112.94H73.08z" mask="url(#b)" transform="rotate(90 176.886 85.536)"/>
            <path fill="#F1F1F1" d="M16.609 179.377L120.415 120l103.806 59.377v112.941H16.61z" mask="url(#b)"/>
        </g>
        <path fill="#7D9FFF" d="M74.303 135.51l30.229 15.945 30.229-15.945v-34.168l-30.229-15.945-30.229 15.945z"/>
        <path fill="#2B4FFD" d="M134.76 136.442l-30.228 16.449v-35.248l30.229-16.45z"/>
        <path fill="#5270FF" d="M74.303 136.442l30.229 16.449v-35.248l-30.229-16.45z"/>
        <path fill="#FFF" d="M91.57 100.526V90.053c0-7.18 5.82-13 13-13h.52c7.18 0 13 5.82 13 13V100.4c.001.011.133 1.459 3.725 1.459 2.404 0 3.618-.487 3.642-1.46V89.759c0-11.046-8.954-20-20-20h-1.253c-11.046 0-20 8.954-20 20V100.4c0 .972 1.248 1.459 3.744 1.459 2.985 0 3.525-.98 3.623-1.333z"/>
        <g fill-rule="nonzero">
            <path fill="#EEF4FF" d="M112.905 125.288l6.997-8.613 6.997.545s1.124 9.471-6.997 19.517c-8.12-.682-6.997-11.45-6.997-11.45z"/>
            <path fill="#FFF" d="M95.775 125.288l-6.997-8.613-6.996.545s-1.125 9.471 6.996 19.517c8.121-.682 6.997-11.45 6.997-11.45z"/>
        </g>
    </g>
</svg>
